<svg xmlns="http://www.w3.org/2000/svg" viewBox="0 0 156.74 52.68"><defs><style>.cls-1{fill:#e30613;}.cls-1,.cls-2{fill-rule:evenodd;}.cls-2,.cls-3{fill:#1d1d1b;}</style></defs><g id="Capa_2" data-name="Capa 2"><g id="Capa_1-2" data-name="Capa 1"><polygon class="cls-1" points="52.68 17.56 35.12 17.56 35.12 0 17.56 0 17.56 17.56 0 17.56 0 35.12 17.56 35.12 17.56 52.68 35.12 52.68 35.12 35.12 52.68 35.12 52.68 17.56"/><path class="cls-2" d="M73.24,16.85a4.53,4.53,0,0,0-2.33-.63,4.18,4.18,0,0,0-4.32,4.4A4.2,4.2,0,0,0,70.83,25a5.57,5.57,0,0,0,2.46-.55L73.38,26a6.91,6.91,0,0,1-2.56.41,5.55,5.55,0,0,1-5.94-5.87,5.62,5.62,0,0,1,6-5.78,6.34,6.34,0,0,1,2.54.48Z"/><path class="cls-2" d="M77.75,16.41H79.3c1.49,0,2.26.65,2.26,1.66s-.9,1.76-2.43,1.76H77.75V16.41Zm-1.61,9.84h1.61v-5h1c.86,0,1.39,0,1.89,1.1l1.73,3.9h1.84l-2.13-4.48c-.36-.69-.6-.94-1.1-1.13v0A2.63,2.63,0,0,0,83.27,18c0-2.69-2.14-3-4.37-3H76.14Z"/><path class="cls-2" d="M95.77,21.59c0,3.16-1.59,4.86-4.37,4.86S87,24.75,87,21.59V15h1.61v6.39c0,2.16.68,3.65,2.76,3.65s2.76-1.49,2.76-3.65V15h1.61Z"/><polygon class="cls-2" points="98.66 24.8 104.5 16.41 98.86 16.41 98.86 14.99 106.36 14.99 106.36 16.45 100.53 24.83 106.45 24.83 106.45 26.25 98.66 26.25 98.66 24.8"/><path class="cls-2" d="M116.39,16.41h1.55c1.48,0,2.26.65,2.26,1.66s-.91,1.76-2.44,1.76h-1.37V16.41Zm-1.61,9.84h1.61v-5h1c.85,0,1.39,0,1.89,1.1l1.72,3.9h1.84l-2.13-4.48c-.35-.69-.59-.94-1.09-1.13v0A2.64,2.64,0,0,0,121.91,18c0-2.69-2.15-3-4.37-3h-2.76Z"/><path class="cls-2" d="M126.78,20.62c0-2.29,1.23-4.42,3.71-4.4s3.71,2.11,3.71,4.4S133.09,25,130.49,25s-3.71-2.16-3.71-4.41Zm-1.71,0c0,3.42,2,5.83,5.42,5.83s5.42-2.41,5.42-5.83-2-5.82-5.42-5.82S125.07,17.28,125.07,20.62Z"/><path class="cls-2" d="M138,24.87a2.91,2.91,0,0,0,1,.16c1.45,0,1.84-.83,1.84-2.2V15h1.61v8.36a2.82,2.82,0,0,1-3.16,3.1,3.7,3.7,0,0,1-1.3-.2Z"/><path class="cls-2" d="M152.92,22.09h-4.49l2.24-5.58,2.25,5.58Zm-7.84,4.16h1.69l1.15-2.84h5.51l1.15,2.84h1.76L151.58,15h-1.7Z"/><path class="cls-2" d="M71.39,38.27H67.81l1.79-4.46,1.79,4.46ZM65.12,41.6h1.36l.91-2.27h4.42l.91,2.27h1.41l-3.81-9H69Z"/><path class="cls-2" d="M79.09,33.73h1.23c1.19,0,1.81.52,1.81,1.33s-.72,1.41-1.95,1.41H79.09V33.73Zm-1.3,7.87h1.3v-4h.77c.68,0,1.11,0,1.51.88l1.38,3.12h1.47L82.52,38a1.52,1.52,0,0,0-.88-.9v0a2.08,2.08,0,0,0,1.86-2c0-2.15-1.72-2.44-3.5-2.44H77.79Z"/><path class="cls-2" d="M95,34.19a4.18,4.18,0,0,0-2.48-.62,3.53,3.53,0,0,0-.06,7,5.41,5.41,0,0,0,1.44-.15V37.73H92V36.67h3.19v4.69a8.41,8.41,0,0,1-2.75.4,4.44,4.44,0,0,1-4.75-4.7,4.49,4.49,0,0,1,4.77-4.62,6.75,6.75,0,0,1,2.64.45Z"/><polygon class="cls-2" points="100.02 32.59 105.07 32.59 105.07 33.73 101.31 33.73 101.31 36.36 104.73 36.36 104.73 37.5 101.31 37.5 101.31 40.47 105.07 40.47 105.07 41.6 100.02 41.6 100.02 32.59"/><polygon class="cls-2" points="109.56 32.59 111.31 32.59 115.29 39.85 115.31 39.85 115.31 32.59 116.6 32.59 116.6 41.6 114.95 41.6 110.87 34.19 110.85 34.19 110.85 41.6 109.56 41.6 109.56 32.59"/><polygon class="cls-2" points="123.12 33.73 120.32 33.73 120.32 32.59 127.21 32.59 127.21 33.73 124.41 33.73 124.41 41.6 123.12 41.6 123.12 33.73"/><rect class="cls-3" x="130.94" y="32.59" width="1.29" height="9.01"/><polygon class="cls-2" points="136.96 32.59 138.71 32.59 142.69 39.85 142.71 39.85 142.71 32.59 144 32.59 144 41.6 142.35 41.6 138.27 34.19 138.25 34.19 138.25 41.6 136.96 41.6 136.96 32.59"/><path class="cls-2" d="M154,38.27h-3.59l1.79-4.46,1.8,4.46Zm-6.28,3.33h1.36l.92-2.27h4.41l.92,2.27h1.4l-3.8-9h-1.36Z"/></g></g></svg>